SplineFontDB: 3.0
FontName: IBM029
FullName: IBM029
FamilyName: IBM029
Weight: Medium
Version: 1.0
ItalicAngle: 0
UnderlinePosition: -100
UnderlineWidth: 20
Ascent: 896
Descent: 128
sfntRevision: 0x00010000
LayerCount: 2
Layer: 0 1 "Back"  1
Layer: 1 1 "Fore"  0
XUID: [1021 590 1988622496 6654463]
FSType: 2
OS2Version: 1
OS2_WeightWidthSlopeOnly: 0
OS2_UseTypoMetrics: 1
CreationTime: 1020026288
ModificationTime: 1464466925
PfmFamily: 81
TTFWeight: 400
TTFWidth: 5
LineGap: 0
VLineGap: 0
Panose: 0 0 4 0 0 0 0 0 0 0
OS2TypoAscent: 1120
OS2TypoAOffset: 0
OS2TypoDescent: 0
OS2TypoDOffset: 0
OS2TypoLinegap: 0
OS2WinAscent: 1120
OS2WinAOffset: 0
OS2WinDescent: 0
OS2WinDOffset: 0
HheadAscent: 1200
HheadAOffset: 0
HheadDescent: -200
HheadDOffset: 0
OS2SubXSize: 980
OS2SubYSize: 910
OS2SubXOff: 0
OS2SubYOff: 200
OS2SupXSize: 980
OS2SupYSize: 910
OS2SupXOff: 0
OS2SupYOff: 634
OS2StrikeYSize: 70
OS2StrikeYPos: 362
OS2Vendor: 'MACR'
OS2CodePages: 00000001.00000000
OS2UnicodeRanges: 00000003.00000000.00000000.00000000
DEI: 91125
LangName: 1033 "" "" "Regular" "" "" ""
Encoding: UnicodeBmp
UnicodeInterp: none
NameList: Adobe Glyph List
DisplaySize: -24
AntiAlias: 1
FitToEm: 1
WinInfo: 0 16 15
BeginChars: 256 256

StartChar: uni0056
Encoding: 86 86 0
Width: 768
VWidth: 0
Flags: HW
LayerCount: 2
Fore
SplineSet
0 768 m 0
 0 883 l 1
 115 883 l 1
 115 768 l 1
 0 768 l 1
512 768 m 0
 512 883 l 1
 627 883 l 1
 627 768 l 1
 512 768 l 1
0 640 m 0
 0 755 l 1
 115 755 l 1
 115 640 l 1
 0 640 l 1
512 640 m 0
 512 755 l 1
 627 755 l 1
 627 640 l 1
 512 640 l 1
0 512 m 0
 0 627 l 1
 115 627 l 1
 115 512 l 1
 0 512 l 1
512 512 m 0
 512 627 l 1
 627 627 l 1
 627 512 l 1
 512 512 l 1
128 384 m 0
 128 499 l 1
 243 499 l 1
 243 384 l 1
 128 384 l 1
384 384 m 0
 384 499 l 1
 499 499 l 1
 499 384 l 1
 384 384 l 1
128 256 m 0
 128 371 l 1
 243 371 l 1
 243 256 l 1
 128 256 l 1
384 256 m 0
 384 371 l 1
 499 371 l 1
 499 256 l 1
 384 256 l 1
256 128 m 0
 256 243 l 1
 371 243 l 1
 371 128 l 1
 256 128 l 1
256 0 m 0
 256 115 l 1
 371 115 l 1
 371 0 l 1
 256 0 l 1
EndSplineSet
EndChar
StartChar: uni0053
Encoding: 83 83 1
Width: 768
VWidth: 0
Flags: HW
LayerCount: 2
Fore
SplineSet
128 768 m 0
 128 883 l 1
 243 883 l 1
 243 768 l 1
 128 768 l 1
256 768 m 0
 256 883 l 1
 371 883 l 1
 371 768 l 1
 256 768 l 1
384 768 m 0
 384 883 l 1
 499 883 l 1
 499 768 l 1
 384 768 l 1
0 640 m 0
 0 755 l 1
 115 755 l 1
 115 640 l 1
 0 640 l 1
512 640 m 0
 512 755 l 1
 627 755 l 1
 627 640 l 1
 512 640 l 1
128 512 m 0
 128 627 l 1
 243 627 l 1
 243 512 l 1
 128 512 l 1
256 384 m 0
 256 499 l 1
 371 499 l 1
 371 384 l 1
 256 384 l 1
384 256 m 0
 384 371 l 1
 499 371 l 1
 499 256 l 1
 384 256 l 1
0 128 m 0
 0 243 l 1
 115 243 l 1
 115 128 l 1
 0 128 l 1
512 128 m 0
 512 243 l 1
 627 243 l 1
 627 128 l 1
 512 128 l 1
128 0 m 0
 128 115 l 1
 243 115 l 1
 243 0 l 1
 128 0 l 1
256 0 m 0
 256 115 l 1
 371 115 l 1
 371 0 l 1
 256 0 l 1
384 0 m 0
 384 115 l 1
 499 115 l 1
 499 0 l 1
 384 0 l 1
EndSplineSet
EndChar
StartChar: uni002F
Encoding: 47 47 2
Width: 768
VWidth: 0
Flags: HW
LayerCount: 2
Fore
SplineSet
512 640 m 0
 512 755 l 1
 627 755 l 1
 627 640 l 1
 512 640 l 1
384 512 m 0
 384 627 l 1
 499 627 l 1
 499 512 l 1
 384 512 l 1
256 384 m 0
 256 499 l 1
 371 499 l 1
 371 384 l 1
 256 384 l 1
128 256 m 0
 128 371 l 1
 243 371 l 1
 243 256 l 1
 128 256 l 1
0 128 m 0
 0 243 l 1
 115 243 l 1
 115 128 l 1
 0 128 l 1
EndSplineSet
EndChar
StartChar: uni0030
Encoding: 48 48 3
Width: 768
VWidth: 0
Flags: HW
LayerCount: 2
Fore
SplineSet
128 768 m 0
 128 883 l 1
 243 883 l 1
 243 768 l 1
 128 768 l 1
256 768 m 0
 256 883 l 1
 371 883 l 1
 371 768 l 1
 256 768 l 1
384 768 m 0
 384 883 l 1
 499 883 l 1
 499 768 l 1
 384 768 l 1
0 640 m 0
 0 755 l 1
 115 755 l 1
 115 640 l 1
 0 640 l 1
512 640 m 0
 512 755 l 1
 627 755 l 1
 627 640 l 1
 512 640 l 1
0 512 m 0
 0 627 l 1
 115 627 l 1
 115 512 l 1
 0 512 l 1
512 512 m 0
 512 627 l 1
 627 627 l 1
 627 512 l 1
 512 512 l 1
0 384 m 0
 0 499 l 1
 115 499 l 1
 115 384 l 1
 0 384 l 1
512 384 m 0
 512 499 l 1
 627 499 l 1
 627 384 l 1
 512 384 l 1
0 256 m 0
 0 371 l 1
 115 371 l 1
 115 256 l 1
 0 256 l 1
512 256 m 0
 512 371 l 1
 627 371 l 1
 627 256 l 1
 512 256 l 1
0 128 m 0
 0 243 l 1
 115 243 l 1
 115 128 l 1
 0 128 l 1
512 128 m 0
 512 243 l 1
 627 243 l 1
 627 128 l 1
 512 128 l 1
128 0 m 0
 128 115 l 1
 243 115 l 1
 243 0 l 1
 128 0 l 1
256 0 m 0
 256 115 l 1
 371 115 l 1
 371 0 l 1
 256 0 l 1
384 0 m 0
 384 115 l 1
 499 115 l 1
 499 0 l 1
 384 0 l 1
EndSplineSet
EndChar
StartChar: uni0054
Encoding: 84 84 4
Width: 768
VWidth: 0
Flags: HW
LayerCount: 2
Fore
SplineSet
0 768 m 0
 0 883 l 1
 115 883 l 1
 115 768 l 1
 0 768 l 1
128 768 m 0
 128 883 l 1
 243 883 l 1
 243 768 l 1
 128 768 l 1
256 768 m 0
 256 883 l 1
 371 883 l 1
 371 768 l 1
 256 768 l 1
384 768 m 0
 384 883 l 1
 499 883 l 1
 499 768 l 1
 384 768 l 1
512 768 m 0
 512 883 l 1
 627 883 l 1
 627 768 l 1
 512 768 l 1
256 640 m 0
 256 755 l 1
 371 755 l 1
 371 640 l 1
 256 640 l 1
256 512 m 0
 256 627 l 1
 371 627 l 1
 371 512 l 1
 256 512 l 1
256 384 m 0
 256 499 l 1
 371 499 l 1
 371 384 l 1
 256 384 l 1
256 256 m 0
 256 371 l 1
 371 371 l 1
 371 256 l 1
 256 256 l 1
256 128 m 0
 256 243 l 1
 371 243 l 1
 371 128 l 1
 256 128 l 1
256 0 m 0
 256 115 l 1
 371 115 l 1
 371 0 l 1
 256 0 l 1
EndSplineSet
EndChar
StartChar: uni0055
Encoding: 85 85 5
Width: 768
VWidth: 0
Flags: HW
LayerCount: 2
Fore
SplineSet
0 768 m 0
 0 883 l 1
 115 883 l 1
 115 768 l 1
 0 768 l 1
512 768 m 0
 512 883 l 1
 627 883 l 1
 627 768 l 1
 512 768 l 1
0 640 m 0
 0 755 l 1
 115 755 l 1
 115 640 l 1
 0 640 l 1
512 640 m 0
 512 755 l 1
 627 755 l 1
 627 640 l 1
 512 640 l 1
0 512 m 0
 0 627 l 1
 115 627 l 1
 115 512 l 1
 0 512 l 1
512 512 m 0
 512 627 l 1
 627 627 l 1
 627 512 l 1
 512 512 l 1
0 384 m 0
 0 499 l 1
 115 499 l 1
 115 384 l 1
 0 384 l 1
512 384 m 0
 512 499 l 1
 627 499 l 1
 627 384 l 1
 512 384 l 1
0 256 m 0
 0 371 l 1
 115 371 l 1
 115 256 l 1
 0 256 l 1
512 256 m 0
 512 371 l 1
 627 371 l 1
 627 256 l 1
 512 256 l 1
0 128 m 0
 0 243 l 1
 115 243 l 1
 115 128 l 1
 0 128 l 1
512 128 m 0
 512 243 l 1
 627 243 l 1
 627 128 l 1
 512 128 l 1
128 0 m 0
 128 115 l 1
 243 115 l 1
 243 0 l 1
 128 0 l 1
256 0 m 0
 256 115 l 1
 371 115 l 1
 371 0 l 1
 256 0 l 1
384 0 m 0
 384 115 l 1
 499 115 l 1
 499 0 l 1
 384 0 l 1
EndSplineSet
EndChar
StartChar: uni0058
Encoding: 88 88 6
Width: 768
VWidth: 0
Flags: HW
LayerCount: 2
Fore
SplineSet
0 768 m 0
 0 883 l 1
 115 883 l 1
 115 768 l 1
 0 768 l 1
512 768 m 0
 512 883 l 1
 627 883 l 1
 627 768 l 1
 512 768 l 1
0 640 m 0
 0 755 l 1
 115 755 l 1
 115 640 l 1
 0 640 l 1
512 640 m 0
 512 755 l 1
 627 755 l 1
 627 640 l 1
 512 640 l 1
128 512 m 0
 128 627 l 1
 243 627 l 1
 243 512 l 1
 128 512 l 1
384 512 m 0
 384 627 l 1
 499 627 l 1
 499 512 l 1
 384 512 l 1
256 384 m 0
 256 499 l 1
 371 499 l 1
 371 384 l 1
 256 384 l 1
128 256 m 0
 128 371 l 1
 243 371 l 1
 243 256 l 1
 128 256 l 1
384 256 m 0
 384 371 l 1
 499 371 l 1
 499 256 l 1
 384 256 l 1
0 128 m 0
 0 243 l 1
 115 243 l 1
 115 128 l 1
 0 128 l 1
512 128 m 0
 512 243 l 1
 627 243 l 1
 627 128 l 1
 512 128 l 1
0 0 m 0
 0 115 l 1
 115 115 l 1
 115 0 l 1
 0 0 l 1
512 0 m 0
 512 115 l 1
 627 115 l 1
 627 0 l 1
 512 0 l 1
EndSplineSet
EndChar
StartChar: uni004E
Encoding: 78 78 7
Width: 768
VWidth: 0
Flags: HW
LayerCount: 2
Fore
SplineSet
0 768 m 0
 0 883 l 1
 115 883 l 1
 115 768 l 1
 0 768 l 1
512 768 m 0
 512 883 l 1
 627 883 l 1
 627 768 l 1
 512 768 l 1
0 640 m 0
 0 755 l 1
 115 755 l 1
 115 640 l 1
 0 640 l 1
128 640 m 0
 128 755 l 1
 243 755 l 1
 243 640 l 1
 128 640 l 1
512 640 m 0
 512 755 l 1
 627 755 l 1
 627 640 l 1
 512 640 l 1
0 512 m 0
 0 627 l 1
 115 627 l 1
 115 512 l 1
 0 512 l 1
256 512 m 0
 256 627 l 1
 371 627 l 1
 371 512 l 1
 256 512 l 1
512 512 m 0
 512 627 l 1
 627 627 l 1
 627 512 l 1
 512 512 l 1
0 384 m 0
 0 499 l 1
 115 499 l 1
 115 384 l 1
 0 384 l 1
384 384 m 0
 384 499 l 1
 499 499 l 1
 499 384 l 1
 384 384 l 1
512 384 m 0
 512 499 l 1
 627 499 l 1
 627 384 l 1
 512 384 l 1
0 256 m 0
 0 371 l 1
 115 371 l 1
 115 256 l 1
 0 256 l 1
512 256 m 0
 512 371 l 1
 627 371 l 1
 627 256 l 1
 512 256 l 1
0 128 m 0
 0 243 l 1
 115 243 l 1
 115 128 l 1
 0 128 l 1
512 128 m 0
 512 243 l 1
 627 243 l 1
 627 128 l 1
 512 128 l 1
0 0 m 0
 0 115 l 1
 115 115 l 1
 115 0 l 1
 0 0 l 1
512 0 m 0
 512 115 l 1
 627 115 l 1
 627 0 l 1
 512 0 l 1
EndSplineSet
EndChar
StartChar: uni004B
Encoding: 75 75 8
Width: 768
VWidth: 0
Flags: HW
LayerCount: 2
Fore
SplineSet
0 768 m 0
 0 883 l 1
 115 883 l 1
 115 768 l 1
 0 768 l 1
512 768 m 0
 512 883 l 1
 627 883 l 1
 627 768 l 1
 512 768 l 1
0 640 m 0
 0 755 l 1
 115 755 l 1
 115 640 l 1
 0 640 l 1
384 640 m 0
 384 755 l 1
 499 755 l 1
 499 640 l 1
 384 640 l 1
0 512 m 0
 0 627 l 1
 115 627 l 1
 115 512 l 1
 0 512 l 1
256 512 m 0
 256 627 l 1
 371 627 l 1
 371 512 l 1
 256 512 l 1
0 384 m 0
 0 499 l 1
 115 499 l 1
 115 384 l 1
 0 384 l 1
128 384 m 0
 128 499 l 1
 243 499 l 1
 243 384 l 1
 128 384 l 1
0 256 m 0
 0 371 l 1
 115 371 l 1
 115 256 l 1
 0 256 l 1
256 256 m 0
 256 371 l 1
 371 371 l 1
 371 256 l 1
 256 256 l 1
0 128 m 0
 0 243 l 1
 115 243 l 1
 115 128 l 1
 0 128 l 1
384 128 m 0
 384 243 l 1
 499 243 l 1
 499 128 l 1
 384 128 l 1
0 0 m 0
 0 115 l 1
 115 115 l 1
 115 0 l 1
 0 0 l 1
512 0 m 0
 512 115 l 1
 627 115 l 1
 627 0 l 1
 512 0 l 1
EndSplineSet
EndChar
StartChar: uni004A
Encoding: 74 74 9
Width: 768
VWidth: 0
Flags: HW
LayerCount: 2
Fore
SplineSet
512 768 m 0
 512 883 l 1
 627 883 l 1
 627 768 l 1
 512 768 l 1
512 640 m 0
 512 755 l 1
 627 755 l 1
 627 640 l 1
 512 640 l 1
512 512 m 0
 512 627 l 1
 627 627 l 1
 627 512 l 1
 512 512 l 1
512 384 m 0
 512 499 l 1
 627 499 l 1
 627 384 l 1
 512 384 l 1
512 256 m 0
 512 371 l 1
 627 371 l 1
 627 256 l 1
 512 256 l 1
0 128 m 0
 0 243 l 1
 115 243 l 1
 115 128 l 1
 0 128 l 1
512 128 m 0
 512 243 l 1
 627 243 l 1
 627 128 l 1
 512 128 l 1
128 0 m 0
 128 115 l 1
 243 115 l 1
 243 0 l 1
 128 0 l 1
256 0 m 0
 256 115 l 1
 371 115 l 1
 371 0 l 1
 256 0 l 1
384 0 m 0
 384 115 l 1
 499 115 l 1
 499 0 l 1
 384 0 l 1
EndSplineSet
EndChar
StartChar: uni002D
Encoding: 45 45 10
Width: 768
VWidth: 0
Flags: HW
LayerCount: 2
Fore
SplineSet
0 256 m 0
 0 371 l 1
 115 371 l 1
 115 256 l 1
 0 256 l 1
128 256 m 0
 128 371 l 1
 243 371 l 1
 243 256 l 1
 128 256 l 1
256 256 m 0
 256 371 l 1
 371 371 l 1
 371 256 l 1
 256 256 l 1
384 256 m 0
 384 371 l 1
 499 371 l 1
 499 256 l 1
 384 256 l 1
512 256 m 0
 512 371 l 1
 627 371 l 1
 627 256 l 1
 512 256 l 1
EndSplineSet
EndChar
StartChar: uni004C
Encoding: 76 76 11
Width: 768
VWidth: 0
Flags: HW
LayerCount: 2
Fore
SplineSet
0 768 m 0
 0 883 l 1
 115 883 l 1
 115 768 l 1
 0 768 l 1
0 640 m 0
 0 755 l 1
 115 755 l 1
 115 640 l 1
 0 640 l 1
0 512 m 0
 0 627 l 1
 115 627 l 1
 115 512 l 1
 0 512 l 1
0 384 m 0
 0 499 l 1
 115 499 l 1
 115 384 l 1
 0 384 l 1
0 256 m 0
 0 371 l 1
 115 371 l 1
 115 256 l 1
 0 256 l 1
0 128 m 0
 0 243 l 1
 115 243 l 1
 115 128 l 1
 0 128 l 1
0 0 m 0
 0 115 l 1
 115 115 l 1
 115 0 l 1
 0 0 l 1
128 0 m 0
 128 115 l 1
 243 115 l 1
 243 0 l 1
 128 0 l 1
256 0 m 0
 256 115 l 1
 371 115 l 1
 371 0 l 1
 256 0 l 1
384 0 m 0
 384 115 l 1
 499 115 l 1
 499 0 l 1
 384 0 l 1
512 0 m 0
 512 115 l 1
 627 115 l 1
 627 0 l 1
 512 0 l 1
EndSplineSet
EndChar
StartChar: uni004D
Encoding: 77 77 12
Width: 768
VWidth: 0
Flags: HW
LayerCount: 2
Fore
SplineSet
0 768 m 0
 0 883 l 1
 115 883 l 1
 115 768 l 1
 0 768 l 1
512 768 m 0
 512 883 l 1
 627 883 l 1
 627 768 l 1
 512 768 l 1
0 640 m 0
 0 755 l 1
 115 755 l 1
 115 640 l 1
 0 640 l 1
128 640 m 0
 128 755 l 1
 243 755 l 1
 243 640 l 1
 128 640 l 1
384 640 m 0
 384 755 l 1
 499 755 l 1
 499 640 l 1
 384 640 l 1
512 640 m 0
 512 755 l 1
 627 755 l 1
 627 640 l 1
 512 640 l 1
0 512 m 0
 0 627 l 1
 115 627 l 1
 115 512 l 1
 0 512 l 1
256 512 m 0
 256 627 l 1
 371 627 l 1
 371 512 l 1
 256 512 l 1
512 512 m 0
 512 627 l 1
 627 627 l 1
 627 512 l 1
 512 512 l 1
0 384 m 0
 0 499 l 1
 115 499 l 1
 115 384 l 1
 0 384 l 1
256 384 m 0
 256 499 l 1
 371 499 l 1
 371 384 l 1
 256 384 l 1
512 384 m 0
 512 499 l 1
 627 499 l 1
 627 384 l 1
 512 384 l 1
0 256 m 0
 0 371 l 1
 115 371 l 1
 115 256 l 1
 0 256 l 1
512 256 m 0
 512 371 l 1
 627 371 l 1
 627 256 l 1
 512 256 l 1
0 128 m 0
 0 243 l 1
 115 243 l 1
 115 128 l 1
 0 128 l 1
512 128 m 0
 512 243 l 1
 627 243 l 1
 627 128 l 1
 512 128 l 1
0 0 m 0
 0 115 l 1
 115 115 l 1
 115 0 l 1
 0 0 l 1
512 0 m 0
 512 115 l 1
 627 115 l 1
 627 0 l 1
 512 0 l 1
EndSplineSet
EndChar
StartChar: uni0050
Encoding: 80 80 13
Width: 768
VWidth: 0
Flags: HW
LayerCount: 2
Fore
SplineSet
0 768 m 0
 0 883 l 1
 115 883 l 1
 115 768 l 1
 0 768 l 1
128 768 m 0
 128 883 l 1
 243 883 l 1
 243 768 l 1
 128 768 l 1
256 768 m 0
 256 883 l 1
 371 883 l 1
 371 768 l 1
 256 768 l 1
384 768 m 0
 384 883 l 1
 499 883 l 1
 499 768 l 1
 384 768 l 1
0 640 m 0
 0 755 l 1
 115 755 l 1
 115 640 l 1
 0 640 l 1
512 640 m 0
 512 755 l 1
 627 755 l 1
 627 640 l 1
 512 640 l 1
0 512 m 0
 0 627 l 1
 115 627 l 1
 115 512 l 1
 0 512 l 1
512 512 m 0
 512 627 l 1
 627 627 l 1
 627 512 l 1
 512 512 l 1
0 384 m 0
 0 499 l 1
 115 499 l 1
 115 384 l 1
 0 384 l 1
128 384 m 0
 128 499 l 1
 243 499 l 1
 243 384 l 1
 128 384 l 1
256 384 m 0
 256 499 l 1
 371 499 l 1
 371 384 l 1
 256 384 l 1
384 384 m 0
 384 499 l 1
 499 499 l 1
 499 384 l 1
 384 384 l 1
0 256 m 0
 0 371 l 1
 115 371 l 1
 115 256 l 1
 0 256 l 1
0 128 m 0
 0 243 l 1
 115 243 l 1
 115 128 l 1
 0 128 l 1
0 0 m 0
 0 115 l 1
 115 115 l 1
 115 0 l 1
 0 0 l 1
EndSplineSet
EndChar
StartChar: uni0045
Encoding: 69 69 14
Width: 768
VWidth: 0
Flags: HW
LayerCount: 2
Fore
SplineSet
0 768 m 0
 0 883 l 1
 115 883 l 1
 115 768 l 1
 0 768 l 1
128 768 m 0
 128 883 l 1
 243 883 l 1
 243 768 l 1
 128 768 l 1
256 768 m 0
 256 883 l 1
 371 883 l 1
 371 768 l 1
 256 768 l 1
384 768 m 0
 384 883 l 1
 499 883 l 1
 499 768 l 1
 384 768 l 1
512 768 m 0
 512 883 l 1
 627 883 l 1
 627 768 l 1
 512 768 l 1
0 640 m 0
 0 755 l 1
 115 755 l 1
 115 640 l 1
 0 640 l 1
0 512 m 0
 0 627 l 1
 115 627 l 1
 115 512 l 1
 0 512 l 1
0 384 m 0
 0 499 l 1
 115 499 l 1
 115 384 l 1
 0 384 l 1
128 384 m 0
 128 499 l 1
 243 499 l 1
 243 384 l 1
 128 384 l 1
256 384 m 0
 256 499 l 1
 371 499 l 1
 371 384 l 1
 256 384 l 1
0 256 m 0
 0 371 l 1
 115 371 l 1
 115 256 l 1
 0 256 l 1
0 128 m 0
 0 243 l 1
 115 243 l 1
 115 128 l 1
 0 128 l 1
0 0 m 0
 0 115 l 1
 115 115 l 1
 115 0 l 1
 0 0 l 1
128 0 m 0
 128 115 l 1
 243 115 l 1
 243 0 l 1
 128 0 l 1
256 0 m 0
 256 115 l 1
 371 115 l 1
 371 0 l 1
 256 0 l 1
384 0 m 0
 384 115 l 1
 499 115 l 1
 499 0 l 1
 384 0 l 1
512 0 m 0
 512 115 l 1
 627 115 l 1
 627 0 l 1
 512 0 l 1
EndSplineSet
EndChar
StartChar: uni0042
Encoding: 66 66 15
Width: 768
VWidth: 0
Flags: HW
LayerCount: 2
Fore
SplineSet
0 768 m 0
 0 883 l 1
 115 883 l 1
 115 768 l 1
 0 768 l 1
128 768 m 0
 128 883 l 1
 243 883 l 1
 243 768 l 1
 128 768 l 1
256 768 m 0
 256 883 l 1
 371 883 l 1
 371 768 l 1
 256 768 l 1
384 768 m 0
 384 883 l 1
 499 883 l 1
 499 768 l 1
 384 768 l 1
128 640 m 0
 128 755 l 1
 243 755 l 1
 243 640 l 1
 128 640 l 1
512 640 m 0
 512 755 l 1
 627 755 l 1
 627 640 l 1
 512 640 l 1
128 512 m 0
 128 627 l 1
 243 627 l 1
 243 512 l 1
 128 512 l 1
512 512 m 0
 512 627 l 1
 627 627 l 1
 627 512 l 1
 512 512 l 1
128 384 m 0
 128 499 l 1
 243 499 l 1
 243 384 l 1
 128 384 l 1
256 384 m 0
 256 499 l 1
 371 499 l 1
 371 384 l 1
 256 384 l 1
384 384 m 0
 384 499 l 1
 499 499 l 1
 499 384 l 1
 384 384 l 1
128 256 m 0
 128 371 l 1
 243 371 l 1
 243 256 l 1
 128 256 l 1
512 256 m 0
 512 371 l 1
 627 371 l 1
 627 256 l 1
 512 256 l 1
128 128 m 0
 128 243 l 1
 243 243 l 1
 243 128 l 1
 128 128 l 1
512 128 m 0
 512 243 l 1
 627 243 l 1
 627 128 l 1
 512 128 l 1
0 0 m 0
 0 115 l 1
 115 115 l 1
 115 0 l 1
 0 0 l 1
128 0 m 0
 128 115 l 1
 243 115 l 1
 243 0 l 1
 128 0 l 1
256 0 m 0
 256 115 l 1
 371 115 l 1
 371 0 l 1
 256 0 l 1
384 0 m 0
 384 115 l 1
 499 115 l 1
 499 0 l 1
 384 0 l 1
EndSplineSet
EndChar
StartChar: uni0041
Encoding: 65 65 16
Width: 768
VWidth: 0
Flags: HW
LayerCount: 2
Fore
SplineSet
256 768 m 0
 256 883 l 1
 371 883 l 1
 371 768 l 1
 256 768 l 1
128 640 m 0
 128 755 l 1
 243 755 l 1
 243 640 l 1
 128 640 l 1
384 640 m 0
 384 755 l 1
 499 755 l 1
 499 640 l 1
 384 640 l 1
0 512 m 0
 0 627 l 1
 115 627 l 1
 115 512 l 1
 0 512 l 1
512 512 m 0
 512 627 l 1
 627 627 l 1
 627 512 l 1
 512 512 l 1
0 384 m 0
 0 499 l 1
 115 499 l 1
 115 384 l 1
 0 384 l 1
512 384 m 0
 512 499 l 1
 627 499 l 1
 627 384 l 1
 512 384 l 1
0 256 m 0
 0 371 l 1
 115 371 l 1
 115 256 l 1
 0 256 l 1
128 256 m 0
 128 371 l 1
 243 371 l 1
 243 256 l 1
 128 256 l 1
256 256 m 0
 256 371 l 1
 371 371 l 1
 371 256 l 1
 256 256 l 1
384 256 m 0
 384 371 l 1
 499 371 l 1
 499 256 l 1
 384 256 l 1
512 256 m 0
 512 371 l 1
 627 371 l 1
 627 256 l 1
 512 256 l 1
0 128 m 0
 0 243 l 1
 115 243 l 1
 115 128 l 1
 0 128 l 1
512 128 m 0
 512 243 l 1
 627 243 l 1
 627 128 l 1
 512 128 l 1
0 0 m 0
 0 115 l 1
 115 115 l 1
 115 0 l 1
 0 0 l 1
512 0 m 0
 512 115 l 1
 627 115 l 1
 627 0 l 1
 512 0 l 1
EndSplineSet
EndChar
StartChar: uni002B
Encoding: 43 43 17
Width: 768
VWidth: 0
Flags: HW
LayerCount: 2
Fore
SplineSet
256 768 m 0
 256 883 l 1
 371 883 l 1
 371 768 l 1
 256 768 l 1
256 640 m 0
 256 755 l 1
 371 755 l 1
 371 640 l 1
 256 640 l 1
256 512 m 0
 256 627 l 1
 371 627 l 1
 371 512 l 1
 256 512 l 1
0 384 m 0
 0 499 l 1
 115 499 l 1
 115 384 l 1
 0 384 l 1
128 384 m 0
 128 499 l 1
 243 499 l 1
 243 384 l 1
 128 384 l 1
256 384 m 0
 256 499 l 1
 371 499 l 1
 371 384 l 1
 256 384 l 1
384 384 m 0
 384 499 l 1
 499 499 l 1
 499 384 l 1
 384 384 l 1
512 384 m 0
 512 499 l 1
 627 499 l 1
 627 384 l 1
 512 384 l 1
256 256 m 0
 256 371 l 1
 371 371 l 1
 371 256 l 1
 256 256 l 1
256 128 m 0
 256 243 l 1
 371 243 l 1
 371 128 l 1
 256 128 l 1
256 0 m 0
 256 115 l 1
 371 115 l 1
 371 0 l 1
 256 0 l 1
EndSplineSet
EndChar
StartChar: uni0043
Encoding: 67 67 18
Width: 768
VWidth: 0
Flags: HW
LayerCount: 2
Fore
SplineSet
128 768 m 0
 128 883 l 1
 243 883 l 1
 243 768 l 1
 128 768 l 1
256 768 m 0
 256 883 l 1
 371 883 l 1
 371 768 l 1
 256 768 l 1
384 768 m 0
 384 883 l 1
 499 883 l 1
 499 768 l 1
 384 768 l 1
0 640 m 0
 0 755 l 1
 115 755 l 1
 115 640 l 1
 0 640 l 1
512 640 m 0
 512 755 l 1
 627 755 l 1
 627 640 l 1
 512 640 l 1
0 512 m 0
 0 627 l 1
 115 627 l 1
 115 512 l 1
 0 512 l 1
0 384 m 0
 0 499 l 1
 115 499 l 1
 115 384 l 1
 0 384 l 1
0 256 m 0
 0 371 l 1
 115 371 l 1
 115 256 l 1
 0 256 l 1
0 128 m 0
 0 243 l 1
 115 243 l 1
 115 128 l 1
 0 128 l 1
512 128 m 0
 512 243 l 1
 627 243 l 1
 627 128 l 1
 512 128 l 1
128 0 m 0
 128 115 l 1
 243 115 l 1
 243 0 l 1
 128 0 l 1
256 0 m 0
 256 115 l 1
 371 115 l 1
 371 0 l 1
 256 0 l 1
384 0 m 0
 384 115 l 1
 499 115 l 1
 499 0 l 1
 384 0 l 1
EndSplineSet
EndChar
StartChar: uni0044
Encoding: 68 68 19
Width: 768
VWidth: 0
Flags: HW
LayerCount: 2
Fore
SplineSet
0 768 m 0
 0 883 l 1
 115 883 l 1
 115 768 l 1
 0 768 l 1
128 768 m 0
 128 883 l 1
 243 883 l 1
 243 768 l 1
 128 768 l 1
256 768 m 0
 256 883 l 1
 371 883 l 1
 371 768 l 1
 256 768 l 1
384 768 m 0
 384 883 l 1
 499 883 l 1
 499 768 l 1
 384 768 l 1
128 640 m 0
 128 755 l 1
 243 755 l 1
 243 640 l 1
 128 640 l 1
512 640 m 0
 512 755 l 1
 627 755 l 1
 627 640 l 1
 512 640 l 1
128 512 m 0
 128 627 l 1
 243 627 l 1
 243 512 l 1
 128 512 l 1
512 512 m 0
 512 627 l 1
 627 627 l 1
 627 512 l 1
 512 512 l 1
128 384 m 0
 128 499 l 1
 243 499 l 1
 243 384 l 1
 128 384 l 1
512 384 m 0
 512 499 l 1
 627 499 l 1
 627 384 l 1
 512 384 l 1
128 256 m 0
 128 371 l 1
 243 371 l 1
 243 256 l 1
 128 256 l 1
512 256 m 0
 512 371 l 1
 627 371 l 1
 627 256 l 1
 512 256 l 1
128 128 m 0
 128 243 l 1
 243 243 l 1
 243 128 l 1
 128 128 l 1
512 128 m 0
 512 243 l 1
 627 243 l 1
 627 128 l 1
 512 128 l 1
0 0 m 0
 0 115 l 1
 115 115 l 1
 115 0 l 1
 0 0 l 1
128 0 m 0
 128 115 l 1
 243 115 l 1
 243 0 l 1
 128 0 l 1
256 0 m 0
 256 115 l 1
 371 115 l 1
 371 0 l 1
 256 0 l 1
384 0 m 0
 384 115 l 1
 499 115 l 1
 499 0 l 1
 384 0 l 1
EndSplineSet
EndChar
StartChar: uni0047
Encoding: 71 71 20
Width: 768
VWidth: 0
Flags: HW
LayerCount: 2
Fore
SplineSet
128 768 m 0
 128 883 l 1
 243 883 l 1
 243 768 l 1
 128 768 l 1
256 768 m 0
 256 883 l 1
 371 883 l 1
 371 768 l 1
 256 768 l 1
384 768 m 0
 384 883 l 1
 499 883 l 1
 499 768 l 1
 384 768 l 1
512 768 m 0
 512 883 l 1
 627 883 l 1
 627 768 l 1
 512 768 l 1
0 640 m 0
 0 755 l 1
 115 755 l 1
 115 640 l 1
 0 640 l 1
0 512 m 0
 0 627 l 1
 115 627 l 1
 115 512 l 1
 0 512 l 1
0 384 m 0
 0 499 l 1
 115 499 l 1
 115 384 l 1
 0 384 l 1
384 384 m 0
 384 499 l 1
 499 499 l 1
 499 384 l 1
 384 384 l 1
512 384 m 0
 512 499 l 1
 627 499 l 1
 627 384 l 1
 512 384 l 1
0 256 m 0
 0 371 l 1
 115 371 l 1
 115 256 l 1
 0 256 l 1
512 256 m 0
 512 371 l 1
 627 371 l 1
 627 256 l 1
 512 256 l 1
0 128 m 0
 0 243 l 1
 115 243 l 1
 115 128 l 1
 0 128 l 1
512 128 m 0
 512 243 l 1
 627 243 l 1
 627 128 l 1
 512 128 l 1
128 0 m 0
 128 115 l 1
 243 115 l 1
 243 0 l 1
 128 0 l 1
256 0 m 0
 256 115 l 1
 371 115 l 1
 371 0 l 1
 256 0 l 1
384 0 m 0
 384 115 l 1
 499 115 l 1
 499 0 l 1
 384 0 l 1
512 0 m 0
 512 115 l 1
 627 115 l 1
 627 0 l 1
 512 0 l 1
EndSplineSet
EndChar
StartChar: uni0035
Encoding: 53 53 21
Width: 768
VWidth: 0
Flags: HW
LayerCount: 2
Fore
SplineSet
0 768 m 0
 0 883 l 1
 115 883 l 1
 115 768 l 1
 0 768 l 1
128 768 m 0
 128 883 l 1
 243 883 l 1
 243 768 l 1
 128 768 l 1
256 768 m 0
 256 883 l 1
 371 883 l 1
 371 768 l 1
 256 768 l 1
384 768 m 0
 384 883 l 1
 499 883 l 1
 499 768 l 1
 384 768 l 1
512 768 m 0
 512 883 l 1
 627 883 l 1
 627 768 l 1
 512 768 l 1
0 640 m 0
 0 755 l 1
 115 755 l 1
 115 640 l 1
 0 640 l 1
0 512 m 0
 0 627 l 1
 115 627 l 1
 115 512 l 1
 0 512 l 1
128 512 m 0
 128 627 l 1
 243 627 l 1
 243 512 l 1
 128 512 l 1
256 512 m 0
 256 627 l 1
 371 627 l 1
 371 512 l 1
 256 512 l 1
384 512 m 0
 384 627 l 1
 499 627 l 1
 499 512 l 1
 384 512 l 1
512 384 m 0
 512 499 l 1
 627 499 l 1
 627 384 l 1
 512 384 l 1
512 256 m 0
 512 371 l 1
 627 371 l 1
 627 256 l 1
 512 256 l 1
0 128 m 0
 0 243 l 1
 115 243 l 1
 115 128 l 1
 0 128 l 1
512 128 m 0
 512 243 l 1
 627 243 l 1
 627 128 l 1
 512 128 l 1
128 0 m 0
 128 115 l 1
 243 115 l 1
 243 0 l 1
 128 0 l 1
256 0 m 0
 256 115 l 1
 371 115 l 1
 371 0 l 1
 256 0 l 1
384 0 m 0
 384 115 l 1
 499 115 l 1
 499 0 l 1
 384 0 l 1
EndSplineSet
EndChar
StartChar: uni0032
Encoding: 50 50 22
Width: 768
VWidth: 0
Flags: HW
LayerCount: 2
Fore
SplineSet
128 768 m 0
 128 883 l 1
 243 883 l 1
 243 768 l 1
 128 768 l 1
256 768 m 0
 256 883 l 1
 371 883 l 1
 371 768 l 1
 256 768 l 1
384 768 m 0
 384 883 l 1
 499 883 l 1
 499 768 l 1
 384 768 l 1
0 640 m 0
 0 755 l 1
 115 755 l 1
 115 640 l 1
 0 640 l 1
512 640 m 0
 512 755 l 1
 627 755 l 1
 627 640 l 1
 512 640 l 1
512 512 m 0
 512 627 l 1
 627 627 l 1
 627 512 l 1
 512 512 l 1
128 384 m 0
 128 499 l 1
 243 499 l 1
 243 384 l 1
 128 384 l 1
256 384 m 0
 256 499 l 1
 371 499 l 1
 371 384 l 1
 256 384 l 1
384 384 m 0
 384 499 l 1
 499 499 l 1
 499 384 l 1
 384 384 l 1
0 256 m 0
 0 371 l 1
 115 371 l 1
 115 256 l 1
 0 256 l 1
0 128 m 0
 0 243 l 1
 115 243 l 1
 115 128 l 1
 0 128 l 1
0 0 m 0
 0 115 l 1
 115 115 l 1
 115 0 l 1
 0 0 l 1
128 0 m 0
 128 115 l 1
 243 115 l 1
 243 0 l 1
 128 0 l 1
256 0 m 0
 256 115 l 1
 371 115 l 1
 371 0 l 1
 256 0 l 1
384 0 m 0
 384 115 l 1
 499 115 l 1
 499 0 l 1
 384 0 l 1
512 0 m 0
 512 115 l 1
 627 115 l 1
 627 0 l 1
 512 0 l 1
EndSplineSet
EndChar
StartChar: uni0031
Encoding: 49 49 23
Width: 768
VWidth: 0
Flags: HW
LayerCount: 2
Fore
SplineSet
256 768 m 0
 256 883 l 1
 371 883 l 1
 371 768 l 1
 256 768 l 1
128 640 m 0
 128 755 l 1
 243 755 l 1
 243 640 l 1
 128 640 l 1
256 640 m 0
 256 755 l 1
 371 755 l 1
 371 640 l 1
 256 640 l 1
256 512 m 0
 256 627 l 1
 371 627 l 1
 371 512 l 1
 256 512 l 1
256 384 m 0
 256 499 l 1
 371 499 l 1
 371 384 l 1
 256 384 l 1
256 256 m 0
 256 371 l 1
 371 371 l 1
 371 256 l 1
 256 256 l 1
256 128 m 0
 256 243 l 1
 371 243 l 1
 371 128 l 1
 256 128 l 1
128 0 m 0
 128 115 l 1
 243 115 l 1
 243 0 l 1
 128 0 l 1
256 0 m 0
 256 115 l 1
 371 115 l 1
 371 0 l 1
 256 0 l 1
384 0 m 0
 384 115 l 1
 499 115 l 1
 499 0 l 1
 384 0 l 1
EndSplineSet
EndChar
StartChar: uni0033
Encoding: 51 51 24
Width: 768
VWidth: 0
Flags: HW
LayerCount: 2
Fore
SplineSet
128 768 m 0
 128 883 l 1
 243 883 l 1
 243 768 l 1
 128 768 l 1
256 768 m 0
 256 883 l 1
 371 883 l 1
 371 768 l 1
 256 768 l 1
384 768 m 0
 384 883 l 1
 499 883 l 1
 499 768 l 1
 384 768 l 1
0 640 m 0
 0 755 l 1
 115 755 l 1
 115 640 l 1
 0 640 l 1
512 640 m 0
 512 755 l 1
 627 755 l 1
 627 640 l 1
 512 640 l 1
512 512 m 0
 512 627 l 1
 627 627 l 1
 627 512 l 1
 512 512 l 1
256 384 m 0
 256 499 l 1
 371 499 l 1
 371 384 l 1
 256 384 l 1
384 384 m 0
 384 499 l 1
 499 499 l 1
 499 384 l 1
 384 384 l 1
512 256 m 0
 512 371 l 1
 627 371 l 1
 627 256 l 1
 512 256 l 1
0 128 m 0
 0 243 l 1
 115 243 l 1
 115 128 l 1
 0 128 l 1
512 128 m 0
 512 243 l 1
 627 243 l 1
 627 128 l 1
 512 128 l 1
128 0 m 0
 128 115 l 1
 243 115 l 1
 243 0 l 1
 128 0 l 1
256 0 m 0
 256 115 l 1
 371 115 l 1
 371 0 l 1
 256 0 l 1
384 0 m 0
 384 115 l 1
 499 115 l 1
 499 0 l 1
 384 0 l 1
EndSplineSet
EndChar
StartChar: uni0034
Encoding: 52 52 25
Width: 768
VWidth: 0
Flags: HW
LayerCount: 2
Fore
SplineSet
384 768 m 0
 384 883 l 1
 499 883 l 1
 499 768 l 1
 384 768 l 1
256 640 m 0
 256 755 l 1
 371 755 l 1
 371 640 l 1
 256 640 l 1
128 512 m 0
 128 627 l 1
 243 627 l 1
 243 512 l 1
 128 512 l 1
384 512 m 0
 384 627 l 1
 499 627 l 1
 499 512 l 1
 384 512 l 1
0 384 m 0
 0 499 l 1
 115 499 l 1
 115 384 l 1
 0 384 l 1
384 384 m 0
 384 499 l 1
 499 499 l 1
 499 384 l 1
 384 384 l 1
0 256 m 0
 0 371 l 1
 115 371 l 1
 115 256 l 1
 0 256 l 1
128 256 m 0
 128 371 l 1
 243 371 l 1
 243 256 l 1
 128 256 l 1
256 256 m 0
 256 371 l 1
 371 371 l 1
 371 256 l 1
 256 256 l 1
384 256 m 0
 384 371 l 1
 499 371 l 1
 499 256 l 1
 384 256 l 1
512 256 m 0
 512 371 l 1
 627 371 l 1
 627 256 l 1
 512 256 l 1
384 128 m 0
 384 243 l 1
 499 243 l 1
 499 128 l 1
 384 128 l 1
384 0 m 0
 384 115 l 1
 499 115 l 1
 499 0 l 1
 384 0 l 1
EndSplineSet
EndChar
StartChar: uni0037
Encoding: 55 55 26
Width: 768
VWidth: 0
Flags: HW
LayerCount: 2
Fore
SplineSet
0 768 m 0
 0 883 l 1
 115 883 l 1
 115 768 l 1
 0 768 l 1
128 768 m 0
 128 883 l 1
 243 883 l 1
 243 768 l 1
 128 768 l 1
256 768 m 0
 256 883 l 1
 371 883 l 1
 371 768 l 1
 256 768 l 1
384 768 m 0
 384 883 l 1
 499 883 l 1
 499 768 l 1
 384 768 l 1
512 768 m 0
 512 883 l 1
 627 883 l 1
 627 768 l 1
 512 768 l 1
512 640 m 0
 512 755 l 1
 627 755 l 1
 627 640 l 1
 512 640 l 1
384 512 m 0
 384 627 l 1
 499 627 l 1
 499 512 l 1
 384 512 l 1
256 384 m 0
 256 499 l 1
 371 499 l 1
 371 384 l 1
 256 384 l 1
128 256 m 0
 128 371 l 1
 243 371 l 1
 243 256 l 1
 128 256 l 1
128 128 m 0
 128 243 l 1
 243 243 l 1
 243 128 l 1
 128 128 l 1
128 0 m 0
 128 115 l 1
 243 115 l 1
 243 0 l 1
 128 0 l 1
EndSplineSet
EndChar
StartChar: uni0057
Encoding: 87 87 27
Width: 768
VWidth: 0
Flags: HW
LayerCount: 2
Fore
SplineSet
0 768 m 0
 0 883 l 1
 115 883 l 1
 115 768 l 1
 0 768 l 1
512 768 m 0
 512 883 l 1
 627 883 l 1
 627 768 l 1
 512 768 l 1
0 640 m 0
 0 755 l 1
 115 755 l 1
 115 640 l 1
 0 640 l 1
512 640 m 0
 512 755 l 1
 627 755 l 1
 627 640 l 1
 512 640 l 1
0 512 m 0
 0 627 l 1
 115 627 l 1
 115 512 l 1
 0 512 l 1
512 512 m 0
 512 627 l 1
 627 627 l 1
 627 512 l 1
 512 512 l 1
0 384 m 0
 0 499 l 1
 115 499 l 1
 115 384 l 1
 0 384 l 1
512 384 m 0
 512 499 l 1
 627 499 l 1
 627 384 l 1
 512 384 l 1
0 256 m 0
 0 371 l 1
 115 371 l 1
 115 256 l 1
 0 256 l 1
256 256 m 0
 256 371 l 1
 371 371 l 1
 371 256 l 1
 256 256 l 1
512 256 m 0
 512 371 l 1
 627 371 l 1
 627 256 l 1
 512 256 l 1
0 128 m 0
 0 243 l 1
 115 243 l 1
 115 128 l 1
 0 128 l 1
128 128 m 0
 128 243 l 1
 243 243 l 1
 243 128 l 1
 128 128 l 1
384 128 m 0
 384 243 l 1
 499 243 l 1
 499 128 l 1
 384 128 l 1
512 128 m 0
 512 243 l 1
 627 243 l 1
 627 128 l 1
 512 128 l 1
0 0 m 0
 0 115 l 1
 115 115 l 1
 115 0 l 1
 0 0 l 1
512 0 m 0
 512 115 l 1
 627 115 l 1
 627 0 l 1
 512 0 l 1
EndSplineSet
EndChar
StartChar: uni005A
Encoding: 90 90 28
Width: 768
VWidth: 0
Flags: HW
LayerCount: 2
Fore
SplineSet
0 768 m 0
 0 883 l 1
 115 883 l 1
 115 768 l 1
 0 768 l 1
128 768 m 0
 128 883 l 1
 243 883 l 1
 243 768 l 1
 128 768 l 1
256 768 m 0
 256 883 l 1
 371 883 l 1
 371 768 l 1
 256 768 l 1
384 768 m 0
 384 883 l 1
 499 883 l 1
 499 768 l 1
 384 768 l 1
512 768 m 0
 512 883 l 1
 627 883 l 1
 627 768 l 1
 512 768 l 1
512 640 m 0
 512 755 l 1
 627 755 l 1
 627 640 l 1
 512 640 l 1
384 512 m 0
 384 627 l 1
 499 627 l 1
 499 512 l 1
 384 512 l 1
256 384 m 0
 256 499 l 1
 371 499 l 1
 371 384 l 1
 256 384 l 1
128 256 m 0
 128 371 l 1
 243 371 l 1
 243 256 l 1
 128 256 l 1
0 128 m 0
 0 243 l 1
 115 243 l 1
 115 128 l 1
 0 128 l 1
0 0 m 0
 0 115 l 1
 115 115 l 1
 115 0 l 1
 0 0 l 1
128 0 m 0
 128 115 l 1
 243 115 l 1
 243 0 l 1
 128 0 l 1
256 0 m 0
 256 115 l 1
 371 115 l 1
 371 0 l 1
 256 0 l 1
384 0 m 0
 384 115 l 1
 499 115 l 1
 499 0 l 1
 384 0 l 1
512 0 m 0
 512 115 l 1
 627 115 l 1
 627 0 l 1
 512 0 l 1
EndSplineSet
EndChar
StartChar: uni0059
Encoding: 89 89 29
Width: 768
VWidth: 0
Flags: HW
LayerCount: 2
Fore
SplineSet
0 768 m 0
 0 883 l 1
 115 883 l 1
 115 768 l 1
 0 768 l 1
512 768 m 0
 512 883 l 1
 627 883 l 1
 627 768 l 1
 512 768 l 1
0 640 m 0
 0 755 l 1
 115 755 l 1
 115 640 l 1
 0 640 l 1
512 640 m 0
 512 755 l 1
 627 755 l 1
 627 640 l 1
 512 640 l 1
128 512 m 0
 128 627 l 1
 243 627 l 1
 243 512 l 1
 128 512 l 1
384 512 m 0
 384 627 l 1
 499 627 l 1
 499 512 l 1
 384 512 l 1
256 384 m 0
 256 499 l 1
 371 499 l 1
 371 384 l 1
 256 384 l 1
256 256 m 0
 256 371 l 1
 371 371 l 1
 371 256 l 1
 256 256 l 1
256 128 m 0
 256 243 l 1
 371 243 l 1
 371 128 l 1
 256 128 l 1
256 0 m 0
 256 115 l 1
 371 115 l 1
 371 0 l 1
 256 0 l 1
EndSplineSet
EndChar
StartChar: uni002C
Encoding: 44 44 30
Width: 768
VWidth: 0
Flags: HW
LayerCount: 2
Fore
SplineSet
128 384 m 0
 128 499 l 1
 243 499 l 1
 243 384 l 1
 128 384 l 1
256 384 m 0
 256 499 l 1
 371 499 l 1
 371 384 l 1
 256 384 l 1
128 256 m 0
 128 371 l 1
 243 371 l 1
 243 256 l 1
 128 256 l 1
256 256 m 0
 256 371 l 1
 371 371 l 1
 371 256 l 1
 256 256 l 1
256 128 m 0
 256 243 l 1
 371 243 l 1
 371 128 l 1
 256 128 l 1
128 0 m 0
 128 115 l 1
 243 115 l 1
 243 0 l 1
 128 0 l 1
EndSplineSet
EndChar
StartChar: uni0028
Encoding: 40 40 31
Width: 768
VWidth: 0
Flags: HW
LayerCount: 2
Fore
SplineSet
384 768 m 0
 384 883 l 1
 499 883 l 1
 499 768 l 1
 384 768 l 1
256 640 m 0
 256 755 l 1
 371 755 l 1
 371 640 l 1
 256 640 l 1
128 512 m 0
 128 627 l 1
 243 627 l 1
 243 512 l 1
 128 512 l 1
128 384 m 0
 128 499 l 1
 243 499 l 1
 243 384 l 1
 128 384 l 1
128 256 m 0
 128 371 l 1
 243 371 l 1
 243 256 l 1
 128 256 l 1
256 128 m 0
 256 243 l 1
 371 243 l 1
 371 128 l 1
 256 128 l 1
384 0 m 0
 384 115 l 1
 499 115 l 1
 499 0 l 1
 384 0 l 1
EndSplineSet
EndChar
StartChar: uni004F
Encoding: 79 79 32
Width: 768
VWidth: 0
Flags: HW
LayerCount: 2
Fore
SplineSet
128 768 m 0
 128 883 l 1
 243 883 l 1
 243 768 l 1
 128 768 l 1
256 768 m 0
 256 883 l 1
 371 883 l 1
 371 768 l 1
 256 768 l 1
384 768 m 0
 384 883 l 1
 499 883 l 1
 499 768 l 1
 384 768 l 1
0 640 m 0
 0 755 l 1
 115 755 l 1
 115 640 l 1
 0 640 l 1
512 640 m 0
 512 755 l 1
 627 755 l 1
 627 640 l 1
 512 640 l 1
0 512 m 0
 0 627 l 1
 115 627 l 1
 115 512 l 1
 0 512 l 1
512 512 m 0
 512 627 l 1
 627 627 l 1
 627 512 l 1
 512 512 l 1
0 384 m 0
 0 499 l 1
 115 499 l 1
 115 384 l 1
 0 384 l 1
512 384 m 0
 512 499 l 1
 627 499 l 1
 627 384 l 1
 512 384 l 1
0 256 m 0
 0 371 l 1
 115 371 l 1
 115 256 l 1
 0 256 l 1
512 256 m 0
 512 371 l 1
 627 371 l 1
 627 256 l 1
 512 256 l 1
0 128 m 0
 0 243 l 1
 115 243 l 1
 115 128 l 1
 0 128 l 1
512 128 m 0
 512 243 l 1
 627 243 l 1
 627 128 l 1
 512 128 l 1
128 0 m 0
 128 115 l 1
 243 115 l 1
 243 0 l 1
 128 0 l 1
256 0 m 0
 256 115 l 1
 371 115 l 1
 371 0 l 1
 256 0 l 1
384 0 m 0
 384 115 l 1
 499 115 l 1
 499 0 l 1
 384 0 l 1
EndSplineSet
EndChar
StartChar: uni0052
Encoding: 82 82 33
Width: 768
VWidth: 0
Flags: HW
LayerCount: 2
Fore
SplineSet
0 768 m 0
 0 883 l 1
 115 883 l 1
 115 768 l 1
 0 768 l 1
128 768 m 0
 128 883 l 1
 243 883 l 1
 243 768 l 1
 128 768 l 1
256 768 m 0
 256 883 l 1
 371 883 l 1
 371 768 l 1
 256 768 l 1
384 768 m 0
 384 883 l 1
 499 883 l 1
 499 768 l 1
 384 768 l 1
0 640 m 0
 0 755 l 1
 115 755 l 1
 115 640 l 1
 0 640 l 1
512 640 m 0
 512 755 l 1
 627 755 l 1
 627 640 l 1
 512 640 l 1
0 512 m 0
 0 627 l 1
 115 627 l 1
 115 512 l 1
 0 512 l 1
512 512 m 0
 512 627 l 1
 627 627 l 1
 627 512 l 1
 512 512 l 1
0 384 m 0
 0 499 l 1
 115 499 l 1
 115 384 l 1
 0 384 l 1
128 384 m 0
 128 499 l 1
 243 499 l 1
 243 384 l 1
 128 384 l 1
256 384 m 0
 256 499 l 1
 371 499 l 1
 371 384 l 1
 256 384 l 1
384 384 m 0
 384 499 l 1
 499 499 l 1
 499 384 l 1
 384 384 l 1
0 256 m 0
 0 371 l 1
 115 371 l 1
 115 256 l 1
 0 256 l 1
256 256 m 0
 256 371 l 1
 371 371 l 1
 371 256 l 1
 256 256 l 1
0 128 m 0
 0 243 l 1
 115 243 l 1
 115 128 l 1
 0 128 l 1
384 128 m 0
 384 243 l 1
 499 243 l 1
 499 128 l 1
 384 128 l 1
0 0 m 0
 0 115 l 1
 115 115 l 1
 115 0 l 1
 0 0 l 1
512 0 m 0
 512 115 l 1
 627 115 l 1
 627 0 l 1
 512 0 l 1
EndSplineSet
EndChar
StartChar: uni0051
Encoding: 81 81 34
Width: 768
VWidth: 0
Flags: HW
LayerCount: 2
Fore
SplineSet
128 768 m 0
 128 883 l 1
 243 883 l 1
 243 768 l 1
 128 768 l 1
256 768 m 0
 256 883 l 1
 371 883 l 1
 371 768 l 1
 256 768 l 1
384 768 m 0
 384 883 l 1
 499 883 l 1
 499 768 l 1
 384 768 l 1
0 640 m 0
 0 755 l 1
 115 755 l 1
 115 640 l 1
 0 640 l 1
512 640 m 0
 512 755 l 1
 627 755 l 1
 627 640 l 1
 512 640 l 1
0 512 m 0
 0 627 l 1
 115 627 l 1
 115 512 l 1
 0 512 l 1
512 512 m 0
 512 627 l 1
 627 627 l 1
 627 512 l 1
 512 512 l 1
0 384 m 0
 0 499 l 1
 115 499 l 1
 115 384 l 1
 0 384 l 1
512 384 m 0
 512 499 l 1
 627 499 l 1
 627 384 l 1
 512 384 l 1
0 256 m 0
 0 371 l 1
 115 371 l 1
 115 256 l 1
 0 256 l 1
256 256 m 0
 256 371 l 1
 371 371 l 1
 371 256 l 1
 256 256 l 1
512 256 m 0
 512 371 l 1
 627 371 l 1
 627 256 l 1
 512 256 l 1
0 128 m 0
 0 243 l 1
 115 243 l 1
 115 128 l 1
 0 128 l 1
384 128 m 0
 384 243 l 1
 499 243 l 1
 499 128 l 1
 384 128 l 1
128 0 m 0
 128 115 l 1
 243 115 l 1
 243 0 l 1
 128 0 l 1
256 0 m 0
 256 115 l 1
 371 115 l 1
 371 0 l 1
 256 0 l 1
512 0 m 0
 512 115 l 1
 627 115 l 1
 627 0 l 1
 512 0 l 1
EndSplineSet
EndChar
StartChar: uni0024
Encoding: 36 36 35
Width: 768
VWidth: 0
Flags: HW
LayerCount: 2
Fore
SplineSet
256 768 m 0
 256 883 l 1
 371 883 l 1
 371 768 l 1
 256 768 l 1
128 640 m 0
 128 755 l 1
 243 755 l 1
 243 640 l 1
 128 640 l 1
256 640 m 0
 256 755 l 1
 371 755 l 1
 371 640 l 1
 256 640 l 1
384 640 m 0
 384 755 l 1
 499 755 l 1
 499 640 l 1
 384 640 l 1
512 640 m 0
 512 755 l 1
 627 755 l 1
 627 640 l 1
 512 640 l 1
0 512 m 0
 0 627 l 1
 115 627 l 1
 115 512 l 1
 0 512 l 1
128 384 m 0
 128 499 l 1
 243 499 l 1
 243 384 l 1
 128 384 l 1
256 384 m 0
 256 499 l 1
 371 499 l 1
 371 384 l 1
 256 384 l 1
384 384 m 0
 384 499 l 1
 499 499 l 1
 499 384 l 1
 384 384 l 1
512 256 m 0
 512 371 l 1
 627 371 l 1
 627 256 l 1
 512 256 l 1
0 128 m 0
 0 243 l 1
 115 243 l 1
 115 128 l 1
 0 128 l 1
128 128 m 0
 128 243 l 1
 243 243 l 1
 243 128 l 1
 128 128 l 1
256 128 m 0
 256 243 l 1
 371 243 l 1
 371 128 l 1
 256 128 l 1
384 128 m 0
 384 243 l 1
 499 243 l 1
 499 128 l 1
 384 128 l 1
256 0 m 0
 256 115 l 1
 371 115 l 1
 371 0 l 1
 256 0 l 1
EndSplineSet
EndChar
StartChar: uni002A
Encoding: 42 42 36
Width: 768
VWidth: 0
Flags: HW
LayerCount: 2
Fore
SplineSet
0 768 m 0
 0 883 l 1
 115 883 l 1
 115 768 l 1
 0 768 l 1
256 768 m 0
 256 883 l 1
 371 883 l 1
 371 768 l 1
 256 768 l 1
512 768 m 0
 512 883 l 1
 627 883 l 1
 627 768 l 1
 512 768 l 1
128 640 m 0
 128 755 l 1
 243 755 l 1
 243 640 l 1
 128 640 l 1
256 640 m 0
 256 755 l 1
 371 755 l 1
 371 640 l 1
 256 640 l 1
384 640 m 0
 384 755 l 1
 499 755 l 1
 499 640 l 1
 384 640 l 1
0 512 m 0
 0 627 l 1
 115 627 l 1
 115 512 l 1
 0 512 l 1
128 512 m 0
 128 627 l 1
 243 627 l 1
 243 512 l 1
 128 512 l 1
256 512 m 0
 256 627 l 1
 371 627 l 1
 371 512 l 1
 256 512 l 1
384 512 m 0
 384 627 l 1
 499 627 l 1
 499 512 l 1
 384 512 l 1
512 512 m 0
 512 627 l 1
 627 627 l 1
 627 512 l 1
 512 512 l 1
128 384 m 0
 128 499 l 1
 243 499 l 1
 243 384 l 1
 128 384 l 1
256 384 m 0
 256 499 l 1
 371 499 l 1
 371 384 l 1
 256 384 l 1
384 384 m 0
 384 499 l 1
 499 499 l 1
 499 384 l 1
 384 384 l 1
0 256 m 0
 0 371 l 1
 115 371 l 1
 115 256 l 1
 0 256 l 1
256 256 m 0
 256 371 l 1
 371 371 l 1
 371 256 l 1
 256 256 l 1
512 256 m 0
 512 371 l 1
 627 371 l 1
 627 256 l 1
 512 256 l 1
EndSplineSet
EndChar
StartChar: uni0046
Encoding: 70 70 37
Width: 768
VWidth: 0
Flags: HW
LayerCount: 2
Fore
SplineSet
0 768 m 0
 0 883 l 1
 115 883 l 1
 115 768 l 1
 0 768 l 1
128 768 m 0
 128 883 l 1
 243 883 l 1
 243 768 l 1
 128 768 l 1
256 768 m 0
 256 883 l 1
 371 883 l 1
 371 768 l 1
 256 768 l 1
384 768 m 0
 384 883 l 1
 499 883 l 1
 499 768 l 1
 384 768 l 1
512 768 m 0
 512 883 l 1
 627 883 l 1
 627 768 l 1
 512 768 l 1
0 640 m 0
 0 755 l 1
 115 755 l 1
 115 640 l 1
 0 640 l 1
0 512 m 0
 0 627 l 1
 115 627 l 1
 115 512 l 1
 0 512 l 1
0 384 m 0
 0 499 l 1
 115 499 l 1
 115 384 l 1
 0 384 l 1
128 384 m 0
 128 499 l 1
 243 499 l 1
 243 384 l 1
 128 384 l 1
256 384 m 0
 256 499 l 1
 371 499 l 1
 371 384 l 1
 256 384 l 1
0 256 m 0
 0 371 l 1
 115 371 l 1
 115 256 l 1
 0 256 l 1
0 128 m 0
 0 243 l 1
 115 243 l 1
 115 128 l 1
 0 128 l 1
0 0 m 0
 0 115 l 1
 115 115 l 1
 115 0 l 1
 0 0 l 1
EndSplineSet
EndChar
StartChar: uni0049
Encoding: 73 73 38
Width: 768
VWidth: 0
Flags: HW
LayerCount: 2
Fore
SplineSet
256 768 m 0
 256 883 l 1
 371 883 l 1
 371 768 l 1
 256 768 l 1
256 640 m 0
 256 755 l 1
 371 755 l 1
 371 640 l 1
 256 640 l 1
256 512 m 0
 256 627 l 1
 371 627 l 1
 371 512 l 1
 256 512 l 1
256 384 m 0
 256 499 l 1
 371 499 l 1
 371 384 l 1
 256 384 l 1
256 256 m 0
 256 371 l 1
 371 371 l 1
 371 256 l 1
 256 256 l 1
256 128 m 0
 256 243 l 1
 371 243 l 1
 371 128 l 1
 256 128 l 1
256 0 m 0
 256 115 l 1
 371 115 l 1
 371 0 l 1
 256 0 l 1
EndSplineSet
EndChar
StartChar: uni0048
Encoding: 72 72 39
Width: 768
VWidth: 0
Flags: HW
LayerCount: 2
Fore
SplineSet
0 768 m 0
 0 883 l 1
 115 883 l 1
 115 768 l 1
 0 768 l 1
512 768 m 0
 512 883 l 1
 627 883 l 1
 627 768 l 1
 512 768 l 1
0 640 m 0
 0 755 l 1
 115 755 l 1
 115 640 l 1
 0 640 l 1
512 640 m 0
 512 755 l 1
 627 755 l 1
 627 640 l 1
 512 640 l 1
0 512 m 0
 0 627 l 1
 115 627 l 1
 115 512 l 1
 0 512 l 1
512 512 m 0
 512 627 l 1
 627 627 l 1
 627 512 l 1
 512 512 l 1
0 384 m 0
 0 499 l 1
 115 499 l 1
 115 384 l 1
 0 384 l 1
128 384 m 0
 128 499 l 1
 243 499 l 1
 243 384 l 1
 128 384 l 1
256 384 m 0
 256 499 l 1
 371 499 l 1
 371 384 l 1
 256 384 l 1
384 384 m 0
 384 499 l 1
 499 499 l 1
 499 384 l 1
 384 384 l 1
512 384 m 0
 512 499 l 1
 627 499 l 1
 627 384 l 1
 512 384 l 1
0 256 m 0
 0 371 l 1
 115 371 l 1
 115 256 l 1
 0 256 l 1
512 256 m 0
 512 371 l 1
 627 371 l 1
 627 256 l 1
 512 256 l 1
0 128 m 0
 0 243 l 1
 115 243 l 1
 115 128 l 1
 0 128 l 1
512 128 m 0
 512 243 l 1
 627 243 l 1
 627 128 l 1
 512 128 l 1
0 0 m 0
 0 115 l 1
 115 115 l 1
 115 0 l 1
 0 0 l 1
512 0 m 0
 512 115 l 1
 627 115 l 1
 627 0 l 1
 512 0 l 1
EndSplineSet
EndChar
StartChar: uni002E
Encoding: 46 46 40
Width: 768
VWidth: 0
Flags: HW
LayerCount: 2
Fore
SplineSet
128 128 m 0
 128 243 l 1
 243 243 l 1
 243 128 l 1
 128 128 l 1
256 128 m 0
 256 243 l 1
 371 243 l 1
 371 128 l 1
 256 128 l 1
128 0 m 0
 128 115 l 1
 243 115 l 1
 243 0 l 1
 128 0 l 1
256 0 m 0
 256 115 l 1
 371 115 l 1
 371 0 l 1
 256 0 l 1
EndSplineSet
EndChar
StartChar: uni0029
Encoding: 41 41 41
Width: 768
VWidth: 0
Flags: HW
LayerCount: 2
Fore
SplineSet
128 768 m 0
 128 883 l 1
 243 883 l 1
 243 768 l 1
 128 768 l 1
256 640 m 0
 256 755 l 1
 371 755 l 1
 371 640 l 1
 256 640 l 1
384 512 m 0
 384 627 l 1
 499 627 l 1
 499 512 l 1
 384 512 l 1
384 384 m 0
 384 499 l 1
 499 499 l 1
 499 384 l 1
 384 384 l 1
384 256 m 0
 384 371 l 1
 499 371 l 1
 499 256 l 1
 384 256 l 1
256 128 m 0
 256 243 l 1
 371 243 l 1
 371 128 l 1
 256 128 l 1
128 0 m 0
 128 115 l 1
 243 115 l 1
 243 0 l 1
 128 0 l 1
EndSplineSet
EndChar
StartChar: uni0036
Encoding: 54 54 42
Width: 768
VWidth: 0
Flags: HW
LayerCount: 2
Fore
SplineSet
256 768 m 0
 256 883 l 1
 371 883 l 1
 371 768 l 1
 256 768 l 1
384 768 m 0
 384 883 l 1
 499 883 l 1
 499 768 l 1
 384 768 l 1
128 640 m 0
 128 755 l 1
 243 755 l 1
 243 640 l 1
 128 640 l 1
0 512 m 0
 0 627 l 1
 115 627 l 1
 115 512 l 1
 0 512 l 1
0 384 m 0
 0 499 l 1
 115 499 l 1
 115 384 l 1
 0 384 l 1
128 384 m 0
 128 499 l 1
 243 499 l 1
 243 384 l 1
 128 384 l 1
256 384 m 0
 256 499 l 1
 371 499 l 1
 371 384 l 1
 256 384 l 1
384 384 m 0
 384 499 l 1
 499 499 l 1
 499 384 l 1
 384 384 l 1
0 256 m 0
 0 371 l 1
 115 371 l 1
 115 256 l 1
 0 256 l 1
512 256 m 0
 512 371 l 1
 627 371 l 1
 627 256 l 1
 512 256 l 1
0 128 m 0
 0 243 l 1
 115 243 l 1
 115 128 l 1
 0 128 l 1
512 128 m 0
 512 243 l 1
 627 243 l 1
 627 128 l 1
 512 128 l 1
128 0 m 0
 128 115 l 1
 243 115 l 1
 243 0 l 1
 128 0 l 1
256 0 m 0
 256 115 l 1
 371 115 l 1
 371 0 l 1
 256 0 l 1
384 0 m 0
 384 115 l 1
 499 115 l 1
 499 0 l 1
 384 0 l 1
EndSplineSet
EndChar
StartChar: uni0039
Encoding: 57 57 43
Width: 768
VWidth: 0
Flags: HW
LayerCount: 2
Fore
SplineSet
128 768 m 0
 128 883 l 1
 243 883 l 1
 243 768 l 1
 128 768 l 1
256 768 m 0
 256 883 l 1
 371 883 l 1
 371 768 l 1
 256 768 l 1
384 768 m 0
 384 883 l 1
 499 883 l 1
 499 768 l 1
 384 768 l 1
0 640 m 0
 0 755 l 1
 115 755 l 1
 115 640 l 1
 0 640 l 1
512 640 m 0
 512 755 l 1
 627 755 l 1
 627 640 l 1
 512 640 l 1
0 512 m 0
 0 627 l 1
 115 627 l 1
 115 512 l 1
 0 512 l 1
512 512 m 0
 512 627 l 1
 627 627 l 1
 627 512 l 1
 512 512 l 1
128 384 m 0
 128 499 l 1
 243 499 l 1
 243 384 l 1
 128 384 l 1
256 384 m 0
 256 499 l 1
 371 499 l 1
 371 384 l 1
 256 384 l 1
384 384 m 0
 384 499 l 1
 499 499 l 1
 499 384 l 1
 384 384 l 1
512 384 m 0
 512 499 l 1
 627 499 l 1
 627 384 l 1
 512 384 l 1
512 256 m 0
 512 371 l 1
 627 371 l 1
 627 256 l 1
 512 256 l 1
384 128 m 0
 384 243 l 1
 499 243 l 1
 499 128 l 1
 384 128 l 1
128 0 m 0
 128 115 l 1
 243 115 l 1
 243 0 l 1
 128 0 l 1
256 0 m 0
 256 115 l 1
 371 115 l 1
 371 0 l 1
 256 0 l 1
EndSplineSet
EndChar
StartChar: uni0038
Encoding: 56 56 44
Width: 768
VWidth: 0
Flags: HW
LayerCount: 2
Fore
SplineSet
128 768 m 0
 128 883 l 1
 243 883 l 1
 243 768 l 1
 128 768 l 1
256 768 m 0
 256 883 l 1
 371 883 l 1
 371 768 l 1
 256 768 l 1
384 768 m 0
 384 883 l 1
 499 883 l 1
 499 768 l 1
 384 768 l 1
0 640 m 0
 0 755 l 1
 115 755 l 1
 115 640 l 1
 0 640 l 1
512 640 m 0
 512 755 l 1
 627 755 l 1
 627 640 l 1
 512 640 l 1
0 512 m 0
 0 627 l 1
 115 627 l 1
 115 512 l 1
 0 512 l 1
512 512 m 0
 512 627 l 1
 627 627 l 1
 627 512 l 1
 512 512 l 1
128 384 m 0
 128 499 l 1
 243 499 l 1
 243 384 l 1
 128 384 l 1
256 384 m 0
 256 499 l 1
 371 499 l 1
 371 384 l 1
 256 384 l 1
384 384 m 0
 384 499 l 1
 499 499 l 1
 499 384 l 1
 384 384 l 1
0 256 m 0
 0 371 l 1
 115 371 l 1
 115 256 l 1
 0 256 l 1
512 256 m 0
 512 371 l 1
 627 371 l 1
 627 256 l 1
 512 256 l 1
0 128 m 0
 0 243 l 1
 115 243 l 1
 115 128 l 1
 0 128 l 1
512 128 m 0
 512 243 l 1
 627 243 l 1
 627 128 l 1
 512 128 l 1
128 0 m 0
 128 115 l 1
 243 115 l 1
 243 0 l 1
 128 0 l 1
256 0 m 0
 256 115 l 1
 371 115 l 1
 371 0 l 1
 256 0 l 1
384 0 m 0
 384 115 l 1
 499 115 l 1
 499 0 l 1
 384 0 l 1
EndSplineSet
EndChar
StartChar: uni003D
Encoding: 61 61 45
Width: 768
VWidth: 0
Flags: HW
LayerCount: 2
Fore
SplineSet
0 512 m 0
 0 627 l 1
 115 627 l 1
 115 512 l 1
 0 512 l 1
128 512 m 0
 128 627 l 1
 243 627 l 1
 243 512 l 1
 128 512 l 1
256 512 m 0
 256 627 l 1
 371 627 l 1
 371 512 l 1
 256 512 l 1
384 512 m 0
 384 627 l 1
 499 627 l 1
 499 512 l 1
 384 512 l 1
512 512 m 0
 512 627 l 1
 627 627 l 1
 627 512 l 1
 512 512 l 1
0 256 m 0
 0 371 l 1
 115 371 l 1
 115 256 l 1
 0 256 l 1
128 256 m 0
 128 371 l 1
 243 371 l 1
 243 256 l 1
 128 256 l 1
256 256 m 0
 256 371 l 1
 371 371 l 1
 371 256 l 1
 256 256 l 1
384 256 m 0
 384 371 l 1
 499 371 l 1
 499 256 l 1
 384 256 l 1
512 256 m 0
 512 371 l 1
 627 371 l 1
 627 256 l 1
 512 256 l 1
EndSplineSet
EndChar
StartChar: uni0027
Encoding: 39 39 46
Width: 768
VWidth: 0
Flags: HW
LayerCount: 2
Fore
SplineSet
128 640 m 0
 128 755 l 1
 243 755 l 1
 243 640 l 1
 128 640 l 1
256 640 m 0
 256 755 l 1
 371 755 l 1
 371 640 l 1
 256 640 l 1
128 512 m 0
 128 627 l 1
 243 627 l 1
 243 512 l 1
 128 512 l 1
256 512 m 0
 256 627 l 1
 371 627 l 1
 371 512 l 1
 256 512 l 1
128 384 m 0
 128 499 l 1
 243 499 l 1
 243 384 l 1
 128 384 l 1
256 384 m 0
 256 499 l 1
 371 499 l 1
 371 384 l 1
 256 384 l 1
EndSplineSet
EndChar
